<svg width="46" height="46" viewBox="0 0 46 46" fill="none" xmlns="http://www.w3.org/2000/svg">
<rect width="46" height="46" rx="8" fill="white"/>
<path d="M32.4222 32.8477H7C7 36.2512 9.70432 38.9997 13.054 38.9997H38.4914C38.4914 35.5962 35.7705 32.8477 32.4222 32.8477Z" fill="#127CA9"/>
<path d="M13.054 7H38.4914C38.4914 10.4022 35.7705 13.1507 32.4222 13.1507H7C7 9.74715 9.70432 7 13.054 7Z" fill="#127CA9"/>
<path d="M13.054 24.2266C9.70432 24.2266 7 26.9917 7 30.3952H21.5386V24.2266H13.054Z" fill="#127CA9"/>
<path d="M23.9541 30.3952H32.4222C35.7705 30.3952 38.4927 27.6301 38.4927 24.2266H23.9541V30.3952Z" fill="#127CA9"/>
<path d="M7 15.6045C7 19.0067 9.70432 21.7718 13.054 21.7718H21.5386V15.6045H7Z" fill="#127CA9"/>
<path d="M38.4927 21.7718C38.4927 18.3696 35.7705 15.6045 32.4222 15.6045H23.9541V21.7718H38.4927Z" fill="#127CA9"/>
</svg>
