<svg width="100%" height="130" viewBox="0 0 268 130" fill="none" xmlns="http://www.w3.org/2000/svg">
<line x1="13.5" y1="7" x2="13.5" y2="115" stroke="black"/>
<path d="M4.50525 119.112C3.38525 119.112 2.67325 118.096 2.67325 116.048C2.67325 114.016 3.38525 113.032 4.50525 113.032C5.60925 113.032 6.32125 114.016 6.32125 116.048C6.32125 118.096 5.60925 119.112 4.50525 119.112ZM4.50525 118.52C5.16925 118.52 5.61725 117.776 5.61725 116.048C5.61725 114.344 5.16925 113.616 4.50525 113.616C3.83325 113.616 3.37725 114.344 3.37725 116.048C3.37725 117.776 3.83325 118.52 4.50525 118.52Z" fill="black"/>
<path d="M14.0053 127.112C12.8853 127.112 12.1733 126.096 12.1733 124.048C12.1733 122.016 12.8853 121.032 14.0053 121.032C15.1093 121.032 15.8212 122.016 15.8212 124.048C15.8212 126.096 15.1093 127.112 14.0053 127.112ZM14.0053 126.52C14.6693 126.52 15.1173 125.776 15.1173 124.048C15.1173 122.344 14.6693 121.616 14.0053 121.616C13.3333 121.616 12.8773 122.344 12.8773 124.048C12.8773 125.776 13.3333 126.52 14.0053 126.52Z" fill="black"/>
<path d="M23.1333 127V126.576C24.9733 124.968 25.8133 123.792 25.8133 122.792C25.8133 122.12 25.4693 121.624 24.7413 121.624C24.2613 121.624 23.8453 121.92 23.5173 122.304L23.0933 121.896C23.5733 121.376 24.0853 121.032 24.8293 121.032C25.8773 121.032 26.5333 121.712 26.5333 122.76C26.5333 123.936 25.6133 125.128 24.2293 126.432C24.5413 126.4 24.8932 126.376 25.1893 126.376H26.8133V127H23.1333Z" fill="black"/>
<path d="M36.3853 127.112C35.4653 127.112 34.8973 126.728 34.5133 126.304L34.8813 125.824C35.2253 126.184 35.6653 126.504 36.3372 126.504C37.0333 126.504 37.5293 126.08 37.5293 125.408C37.5293 124.704 37.0573 124.24 35.7053 124.24V123.672C36.9133 123.672 37.3213 123.192 37.3213 122.552C37.3213 121.992 36.9453 121.624 36.3372 121.624C35.8653 121.624 35.4493 121.864 35.1213 122.2L34.7293 121.728C35.1693 121.328 35.6893 121.032 36.3613 121.032C37.3453 121.032 38.0653 121.568 38.0653 122.504C38.0653 123.216 37.6493 123.688 37.0253 123.912V123.944C37.7133 124.112 38.2733 124.632 38.2733 125.44C38.2733 126.48 37.4333 127.112 36.3853 127.112Z" fill="black"/>
<path d="M48.4933 127V123.008C48.4933 122.712 48.5173 122.24 48.5413 121.936H48.5013C48.3573 122.224 48.1973 122.52 48.0373 122.808L46.7013 124.808H49.9653V125.384H45.9333V124.904L48.3733 121.136H49.1813V127H48.4933Z" fill="black"/>
<path d="M58.8693 127.112C57.9572 127.112 57.3973 126.728 56.9973 126.328L57.3653 125.848C57.6933 126.192 58.1253 126.504 58.7973 126.504C59.4933 126.504 60.0453 125.968 60.0453 125.12C60.0453 124.28 59.5653 123.776 58.8372 123.776C58.4453 123.776 58.1973 123.904 57.8613 124.128L57.4693 123.88L57.6533 121.136H60.5093V121.76H58.2933L58.1413 123.456C58.4053 123.312 58.6693 123.224 59.0213 123.224C59.9973 123.224 60.7893 123.8 60.7893 125.096C60.7893 126.376 59.8533 127.112 58.8693 127.112Z" fill="black"/>
<path d="M70.6893 127.112C69.5613 127.112 68.7213 126.144 68.7213 124.208C68.7213 121.912 69.7533 121.032 70.8893 121.032C71.4973 121.032 71.9453 121.288 72.2653 121.632L71.8573 122.08C71.6333 121.808 71.2733 121.64 70.9213 121.64C70.0973 121.64 69.4093 122.288 69.4093 124.208C69.4093 125.712 69.8653 126.536 70.6893 126.536C71.2493 126.536 71.6813 126 71.6813 125.208C71.6813 124.408 71.3293 123.904 70.6253 123.904C70.2493 123.904 69.7773 124.128 69.3853 124.712L69.3613 124.128C69.7213 123.656 70.2653 123.368 70.7373 123.368C71.7293 123.368 72.3693 123.976 72.3693 125.208C72.3693 126.344 71.5933 127.112 70.6893 127.112Z" fill="black"/>
<path d="M81.3573 127C81.4613 124.784 81.8613 123.36 83.0133 121.76H80.1733V121.136H83.8373V121.576C82.4613 123.344 82.2133 124.712 82.1173 127H81.3573Z" fill="black"/>
<path d="M93.0133 127.112C91.9333 127.112 91.1413 126.456 91.1413 125.552C91.1413 124.76 91.6853 124.216 92.2213 123.928V123.896C91.7893 123.6 91.4213 123.152 91.4213 122.536C91.4213 121.648 92.1173 121.056 93.0373 121.056C94.0373 121.056 94.6453 121.696 94.6453 122.592C94.6453 123.216 94.2133 123.736 93.8613 124.008V124.048C94.3733 124.344 94.8533 124.792 94.8533 125.592C94.8533 126.448 94.1093 127.112 93.0133 127.112ZM93.4133 123.824C93.8133 123.472 94.0213 123.072 94.0213 122.632C94.0213 122.056 93.6533 121.592 93.0213 121.592C92.4853 121.592 92.0933 121.976 92.0933 122.536C92.0933 123.24 92.7253 123.552 93.4133 123.824ZM93.0293 126.56C93.7013 126.56 94.1493 126.152 94.1493 125.568C94.1493 124.784 93.4293 124.488 92.6053 124.152C92.1253 124.456 91.7973 124.92 91.7973 125.48C91.7973 126.104 92.3253 126.56 93.0293 126.56Z" fill="black"/>
<path d="M104.153 127.112C103.513 127.112 103.065 126.856 102.737 126.512L103.145 126.048C103.393 126.336 103.753 126.504 104.129 126.504C104.913 126.504 105.593 125.824 105.593 123.816C105.593 122.376 105.137 121.6 104.313 121.6C103.753 121.6 103.321 122.128 103.321 122.936C103.321 123.72 103.673 124.24 104.369 124.24C104.761 124.24 105.217 124.008 105.601 123.424L105.641 124.008C105.273 124.472 104.753 124.776 104.249 124.776C103.265 124.776 102.633 124.152 102.633 122.936C102.633 121.8 103.401 121.032 104.313 121.032C105.441 121.032 106.281 121.952 106.281 123.816C106.281 126.2 105.257 127.112 104.153 127.112Z" fill="black"/>
<path d="M112.267 127V126.392H113.571V122.024H112.523V121.552C113.051 121.464 113.427 121.328 113.739 121.136H114.299V126.392H115.483V127H112.267ZM118.224 127.112C117.104 127.112 116.392 126.096 116.392 124.048C116.392 122.016 117.104 121.032 118.224 121.032C119.328 121.032 120.04 122.016 120.04 124.048C120.04 126.096 119.328 127.112 118.224 127.112ZM118.224 126.52C118.888 126.52 119.336 125.776 119.336 124.048C119.336 122.344 118.888 121.616 118.224 121.616C117.552 121.616 117.096 122.344 117.096 124.048C117.096 125.776 117.552 126.52 118.224 126.52Z" fill="black"/>
<path d="M123.267 127V126.392H124.571V122.024H123.523V121.552C124.051 121.464 124.427 121.328 124.739 121.136H125.299V126.392H126.483V127H123.267ZM127.704 127V126.392H129.008V122.024H127.96V121.552C128.488 121.464 128.864 121.328 129.176 121.136H129.736V126.392H130.92V127H127.704Z" fill="black"/>
<path d="M134.267 127V126.392H135.571V122.024H134.523V121.552C135.051 121.464 135.427 121.328 135.739 121.136H136.299V126.392H137.483V127H134.267ZM138.352 127V126.576C140.192 124.968 141.032 123.792 141.032 122.792C141.032 122.12 140.688 121.624 139.96 121.624C139.48 121.624 139.064 121.92 138.736 122.304L138.312 121.896C138.792 121.376 139.304 121.032 140.048 121.032C141.096 121.032 141.752 121.712 141.752 122.76C141.752 123.936 140.832 125.128 139.448 126.432C139.76 126.4 140.112 126.376 140.408 126.376H142.032V127H138.352Z" fill="black"/>
<path d="M146.267 127V126.392H147.571V122.024H146.523V121.552C147.051 121.464 147.427 121.328 147.739 121.136H148.299V126.392H149.483V127H146.267ZM152.104 127.112C151.184 127.112 150.616 126.728 150.232 126.304L150.6 125.824C150.944 126.184 151.384 126.504 152.056 126.504C152.752 126.504 153.248 126.08 153.248 125.408C153.248 124.704 152.776 124.24 151.424 124.24V123.672C152.632 123.672 153.04 123.192 153.04 122.552C153.04 121.992 152.664 121.624 152.056 121.624C151.584 121.624 151.168 121.864 150.84 122.2L150.448 121.728C150.888 121.328 151.408 121.032 152.08 121.032C153.064 121.032 153.784 121.568 153.784 122.504C153.784 123.216 153.368 123.688 152.744 123.912V123.944C153.432 124.112 153.992 124.632 153.992 125.44C153.992 126.48 153.152 127.112 152.104 127.112Z" fill="black"/>
<path d="M157.267 127V126.392H158.571V122.024H157.523V121.552C158.051 121.464 158.427 121.328 158.739 121.136H159.299V126.392H160.483V127H157.267ZM163.712 127V123.008C163.712 122.712 163.736 122.24 163.76 121.936H163.72C163.576 122.224 163.416 122.52 163.256 122.808L161.92 124.808H165.184V125.384H161.152V124.904L163.592 121.136H164.4V127H163.712Z" fill="black"/>
<path d="M168.267 127V126.392H169.571V122.024H168.523V121.552C169.051 121.464 169.427 121.328 169.739 121.136H170.299V126.392H171.483V127H168.267ZM174.088 127.112C173.176 127.112 172.616 126.728 172.216 126.328L172.584 125.848C172.912 126.192 173.344 126.504 174.016 126.504C174.712 126.504 175.264 125.968 175.264 125.12C175.264 124.28 174.784 123.776 174.056 123.776C173.664 123.776 173.416 123.904 173.08 124.128L172.688 123.88L172.872 121.136H175.728V121.76H173.512L173.36 123.456C173.624 123.312 173.888 123.224 174.24 123.224C175.216 123.224 176.008 123.8 176.008 125.096C176.008 126.376 175.072 127.112 174.088 127.112Z" fill="black"/>
<path d="M180.267 127V126.392H181.571V122.024H180.523V121.552C181.051 121.464 181.427 121.328 181.739 121.136H182.299V126.392H183.483V127H180.267ZM186.408 127.112C185.28 127.112 184.44 126.144 184.44 124.208C184.44 121.912 185.472 121.032 186.608 121.032C187.216 121.032 187.664 121.288 187.984 121.632L187.576 122.08C187.352 121.808 186.992 121.64 186.64 121.64C185.816 121.64 185.128 122.288 185.128 124.208C185.128 125.712 185.584 126.536 186.408 126.536C186.968 126.536 187.4 126 187.4 125.208C187.4 124.408 187.048 123.904 186.344 123.904C185.968 123.904 185.496 124.128 185.104 124.712L185.08 124.128C185.44 123.656 185.984 123.368 186.456 123.368C187.448 123.368 188.088 123.976 188.088 125.208C188.088 126.344 187.312 127.112 186.408 127.112Z" fill="black"/>
<path d="M191.267 127V126.392H192.571V122.024H191.523V121.552C192.051 121.464 192.427 121.328 192.739 121.136H193.299V126.392H194.483V127H191.267ZM196.576 127C196.68 124.784 197.08 123.36 198.232 121.76H195.392V121.136H199.056V121.576C197.68 123.344 197.432 124.712 197.336 127H196.576Z" fill="black"/>
<path d="M202.267 127V126.392H203.571V122.024H202.523V121.552C203.051 121.464 203.427 121.328 203.739 121.136H204.299V126.392H205.483V127H202.267ZM208.232 127.112C207.152 127.112 206.36 126.456 206.36 125.552C206.36 124.76 206.904 124.216 207.44 123.928V123.896C207.008 123.6 206.64 123.152 206.64 122.536C206.64 121.648 207.336 121.056 208.256 121.056C209.256 121.056 209.864 121.696 209.864 122.592C209.864 123.216 209.432 123.736 209.08 124.008V124.048C209.592 124.344 210.072 124.792 210.072 125.592C210.072 126.448 209.328 127.112 208.232 127.112ZM208.632 123.824C209.032 123.472 209.24 123.072 209.24 122.632C209.24 122.056 208.872 121.592 208.24 121.592C207.704 121.592 207.312 121.976 207.312 122.536C207.312 123.24 207.944 123.552 208.632 123.824ZM208.248 126.56C208.92 126.56 209.368 126.152 209.368 125.568C209.368 124.784 208.648 124.488 207.824 124.152C207.344 124.456 207.016 124.92 207.016 125.48C207.016 126.104 207.544 126.56 208.248 126.56Z" fill="black"/>
<path d="M214.267 127V126.392H215.571V122.024H214.523V121.552C215.051 121.464 215.427 121.328 215.739 121.136H216.299V126.392H217.483V127H214.267ZM219.872 127.112C219.232 127.112 218.784 126.856 218.456 126.512L218.864 126.048C219.112 126.336 219.472 126.504 219.848 126.504C220.632 126.504 221.312 125.824 221.312 123.816C221.312 122.376 220.856 121.6 220.032 121.6C219.472 121.6 219.04 122.128 219.04 122.936C219.04 123.72 219.392 124.24 220.088 124.24C220.48 124.24 220.936 124.008 221.32 123.424L221.36 124.008C220.992 124.472 220.472 124.776 219.968 124.776C218.984 124.776 218.352 124.152 218.352 122.936C218.352 121.8 219.12 121.032 220.032 121.032C221.16 121.032 222 121.952 222 123.816C222 126.2 220.976 127.112 219.872 127.112Z" fill="black"/>
<path d="M224.915 127V126.576C226.755 124.968 227.595 123.792 227.595 122.792C227.595 122.12 227.251 121.624 226.523 121.624C226.043 121.624 225.627 121.92 225.299 122.304L224.875 121.896C225.355 121.376 225.867 121.032 226.611 121.032C227.659 121.032 228.315 121.712 228.315 122.76C228.315 123.936 227.395 125.128 226.011 126.432C226.323 126.4 226.674 126.376 226.971 126.376H228.595V127H224.915ZM231.224 127.112C230.104 127.112 229.392 126.096 229.392 124.048C229.392 122.016 230.104 121.032 231.224 121.032C232.328 121.032 233.04 122.016 233.04 124.048C233.04 126.096 232.328 127.112 231.224 127.112ZM231.224 126.52C231.888 126.52 232.336 125.776 232.336 124.048C232.336 122.344 231.888 121.616 231.224 121.616C230.552 121.616 230.096 122.344 230.096 124.048C230.096 125.776 230.552 126.52 231.224 126.52Z" fill="black"/>
<path d="M235.915 127V126.576C237.755 124.968 238.595 123.792 238.595 122.792C238.595 122.12 238.251 121.624 237.523 121.624C237.043 121.624 236.627 121.92 236.299 122.304L235.875 121.896C236.355 121.376 236.867 121.032 237.611 121.032C238.659 121.032 239.315 121.712 239.315 122.76C239.315 123.936 238.395 125.128 237.011 126.432C237.323 126.4 237.674 126.376 237.971 126.376H239.595V127H235.915ZM240.704 127V126.392H242.008V122.024H240.96V121.552C241.488 121.464 241.864 121.328 242.176 121.136H242.736V126.392H243.92V127H240.704Z" fill="black"/>
<path d="M247.415 127V126.576C249.255 124.968 250.095 123.792 250.095 122.792C250.095 122.12 249.751 121.624 249.023 121.624C248.543 121.624 248.127 121.92 247.799 122.304L247.375 121.896C247.855 121.376 248.367 121.032 249.111 121.032C250.159 121.032 250.815 121.712 250.815 122.76C250.815 123.936 249.895 125.128 248.511 126.432C248.823 126.4 249.174 126.376 249.471 126.376H251.095V127H247.415ZM251.852 127V126.576C253.692 124.968 254.532 123.792 254.532 122.792C254.532 122.12 254.188 121.624 253.46 121.624C252.98 121.624 252.564 121.92 252.236 122.304L251.812 121.896C252.292 121.376 252.804 121.032 253.548 121.032C254.596 121.032 255.252 121.712 255.252 122.76C255.252 123.936 254.332 125.128 252.948 126.432C253.26 126.4 253.612 126.376 253.908 126.376H255.532V127H251.852Z" fill="black"/>
<path d="M258.915 127V126.576C260.755 124.968 261.595 123.792 261.595 122.792C261.595 122.12 261.251 121.624 260.523 121.624C260.043 121.624 259.627 121.92 259.299 122.304L258.875 121.896C259.355 121.376 259.867 121.032 260.611 121.032C261.659 121.032 262.315 121.712 262.315 122.76C262.315 123.936 261.395 125.128 260.011 126.432C260.323 126.4 260.674 126.376 260.971 126.376H262.595V127H258.915ZM265.104 127.112C264.184 127.112 263.616 126.728 263.232 126.304L263.6 125.824C263.944 126.184 264.384 126.504 265.056 126.504C265.752 126.504 266.248 126.08 266.248 125.408C266.248 124.704 265.776 124.24 264.424 124.24V123.672C265.632 123.672 266.04 123.192 266.04 122.552C266.04 121.992 265.664 121.624 265.056 121.624C264.584 121.624 264.168 121.864 263.84 122.2L263.448 121.728C263.888 121.328 264.408 121.032 265.08 121.032C266.064 121.032 266.784 121.568 266.784 122.504C266.784 123.216 266.368 123.688 265.744 123.912V123.944C266.432 124.112 266.992 124.632 266.992 125.44C266.992 126.48 266.152 127.112 265.104 127.112Z" fill="black"/>
<path d="M0.4145 64V63.576C2.2545 61.968 3.0945 60.792 3.0945 59.792C3.0945 59.12 2.7505 58.624 2.0225 58.624C1.5425 58.624 1.1265 58.92 0.7985 59.304L0.3745 58.896C0.8545 58.376 1.3665 58.032 2.1105 58.032C3.1585 58.032 3.8145 58.712 3.8145 59.76C3.8145 60.936 2.8945 62.128 1.5105 63.432C1.8225 63.4 2.1745 63.376 2.4705 63.376H4.0945V64H0.4145ZM6.588 64.112C5.676 64.112 5.116 63.728 4.716 63.328L5.084 62.848C5.412 63.192 5.844 63.504 6.516 63.504C7.212 63.504 7.764 62.968 7.764 62.12C7.764 61.28 7.284 60.776 6.556 60.776C6.164 60.776 5.916 60.904 5.58 61.128L5.188 60.88L5.372 58.136H8.228V58.76H6.012L5.86 60.456C6.124 60.312 6.388 60.224 6.74 60.224C7.716 60.224 8.508 60.8 8.508 62.096C8.508 63.376 7.572 64.112 6.588 64.112Z" fill="black"/>
<path d="M2.1505 11.112C1.2385 11.112 0.6785 10.728 0.2785 10.328L0.6465 9.848C0.9745 10.192 1.4065 10.504 2.0785 10.504C2.7745 10.504 3.3265 9.968 3.3265 9.12C3.3265 8.28 2.8465 7.776 2.1185 7.776C1.7265 7.776 1.4785 7.904 1.1425 8.128L0.7505 7.88L0.9345 5.136H3.7905V5.76H1.5745L1.4225 7.456C1.6865 7.312 1.9505 7.224 2.3025 7.224C3.2785 7.224 4.0705 7.8 4.0705 9.096C4.0705 10.376 3.1345 11.112 2.1505 11.112ZM6.724 11.112C5.604 11.112 4.892 10.096 4.892 8.048C4.892 6.016 5.604 5.032 6.724 5.032C7.828 5.032 8.54 6.016 8.54 8.048C8.54 10.096 7.828 11.112 6.724 11.112ZM6.724 10.52C7.388 10.52 7.836 9.776 7.836 8.048C7.836 6.344 7.388 5.616 6.724 5.616C6.052 5.616 5.596 6.344 5.596 8.048C5.596 9.776 6.052 10.52 6.724 10.52Z" fill="black"/>
<line x1="24.5" y1="7" x2="24.5" y2="115" stroke="#ECECEC"/>
<line x1="35.5" y1="7" x2="35.5" y2="115" stroke="#ECECEC"/>
<line x1="47.5" y1="7" x2="47.5" y2="115" stroke="#ECECEC"/>
<line x1="58.5" y1="7" x2="58.5" y2="115" stroke="#ECECEC"/>
<line x1="69.5" y1="7" x2="69.5" y2="115" stroke="#ECECEC"/>
<line x1="81.5" y1="7" x2="81.5" y2="115" stroke="#ECECEC"/>
<line x1="92.5" y1="7" x2="92.5" y2="115" stroke="#ECECEC"/>
<line x1="103.5" y1="7" x2="103.5" y2="115" stroke="#ECECEC"/>
<line x1="115.5" y1="7" x2="115.5" y2="115" stroke="#ECECEC"/>
<line x1="126.5" y1="7" x2="126.5" y2="115" stroke="#ECECEC"/>
<line x1="137.5" y1="7" x2="137.5" y2="115" stroke="#ECECEC"/>
<line x1="148.5" y1="7" x2="148.5" y2="115" stroke="#ECECEC"/>
<line x1="160.5" y1="7" x2="160.5" y2="115" stroke="#ECECEC"/>
<line x1="171.5" y1="7" x2="171.5" y2="115" stroke="#ECECEC"/>
<line x1="182.5" y1="7" x2="182.5" y2="115" stroke="#ECECEC"/>
<line x1="194.5" y1="7" x2="194.5" y2="115" stroke="#ECECEC"/>
<line x1="205.5" y1="7" x2="205.5" y2="115" stroke="#ECECEC"/>
<line x1="216.5" y1="7" x2="216.5" y2="115" stroke="#ECECEC"/>
<line x1="228.5" y1="7" x2="228.5" y2="115" stroke="#ECECEC"/>
<line x1="239.5" y1="7" x2="239.5" y2="115" stroke="#ECECEC"/>
<line x1="251.5" y1="7" x2="251.5" y2="115" stroke="#ECECEC"/>
<line x1="263.5" y1="7" x2="263.5" y2="115" stroke="black"/>
<line x1="13" y1="114.5" x2="264" y2="114.5" stroke="black"/>
<line x1="263" y1="60.5" x2="14" y2="60.5" stroke="#ECECEC"/>
<path d="M13.9617 90.9414L43.3542 93.0072L58.7463 93.0647L75.5564 97.0392L101.651 91.7697L120.308 91.8395L138.983 95.5652L167.428 94.216L180.958 94.9888L197.742 93.5847L217.339 95.1249L263.048 94.5737" stroke="#40E0A7"/>
<path d="M13.9617 59.9297L43.3571 60.8445L58.7492 60.9209L75.5653 62.5424L101.651 60.5613L120.309 60.6538L138.989 62.184L167.432 61.7527L180.963 62.1038L197.745 61.6102L217.344 62.2842L263.051 62.227" stroke="#E8C857"/>
<path d="M13.9744 32.1138L41.9584 32.1945L58.768 30.7121L69.4655 27.3381L93.2627 31.1119L107.721 30.7807L120.795 36.2167L147.831 29.5224L161.357 29.5614L168.815 27.6247L180.476 27.6583L197.734 27.7081L216.857 27.7633L263.071 31.6018" stroke="#5FAFF9"/>
<path d="M13.9601 20.5802L41.944 20.718L58.7508 20.3353L69.4423 19.3529L93.2458 20.5964L107.703 20.5542L120.786 22.2597L147.81 20.334L161.337 20.4006L168.791 19.842L180.452 19.8994L197.71 19.9843L216.833 20.0785L263.053 21.4324" stroke="#C3D300"/>
</svg>
