<svg fill="none" xmlns="http://www.w3.org/2000/svg" viewBox="0 0 211 30"><path d="M42.5 28.8H37V6q0-5 4.9-5h12.7v4.8h-11q-.6 0-1 .3l-.2 1v4.7h11v4.8h-11z" fill="#000"/><path d="M42.5 28.8H37V6q0-5 4.9-5h12.7v4.8h-11q-.6 0-1 .3l-.2 1v4.7h11v4.8h-11z" stroke="#000" stroke-width=".8"/><path d="M74.2 25q0 2.1-.8 3t-2.8.8h-6.4q-3.7 0-5.5-1.8t-1.8-5.4v-12h4.9v11.8q0 1.7.7 2.4t2 .6h3.8l.8-.1q.3-.2.2-.9V9.7h5z" fill="#000"/><path d="M74.2 25q0 2.1-.8 3t-2.8.8h-6.4q-3.7 0-5.5-1.8t-1.8-5.4v-12h4.9v11.8q0 1.7.7 2.4t2 .6h3.8l.8-.1q.3-.2.2-.9V9.7h5z" stroke="#000" stroke-width=".8"/><path d="M87.8 18q1.5 0 1.5-1.4v-1q0-1.6-1.5-1.6h-4.5q-1.5 0-1.5 1.5v2.6zM93 28.9H82.3q-3 0-4.2-1.2T76.9 24v-9.4q0-2.5 1.2-3.7 1.2-1.1 4.2-1.1h6.5q3 0 4.2 1.1t1.3 3.7v2.7q0 2.6-1.3 3.7-1.2 1.2-4.2 1.2h-7v.8q0 1.5 1.5 1.5H93z" fill="#000"/><path d="M87.8 18q1.5 0 1.5-1.4v-1q0-1.6-1.5-1.6h-4.5q-1.5 0-1.5 1.5v2.6zM93 28.9H82.3q-3 0-4.2-1.2T76.9 24v-9.4q0-2.5 1.2-3.7 1.2-1.1 4.2-1.1h6.5q3 0 4.2 1.1t1.3 3.7v2.7q0 2.6-1.3 3.7-1.2 1.2-4.2 1.2h-7v.8q0 1.5 1.5 1.5H93z" stroke="#000" stroke-width=".8"/><path d="M101.8 28.8h-5V1h5z" fill="#000"/><path d="M101.8 28.8h-5V1h5z" stroke="#000" stroke-width=".8"/><path d="M123.2 28.8h-11q-1.8 0-3-.6-1.4-.5-2.3-1.5a7 7 0 0 1-1.5-2.3q-.5-1.3-.5-3v-13q0-1.6.5-3a6 6 0 0 1 3.8-3.8q1.3-.6 3-.6h11v4.8H113q-1.2 0-2 .8-.6.5-.6 2v12.6q0 1.3.7 2t1.9.7h10.3z" fill="#000"/><path d="M123.2 28.8h-11q-1.8 0-3-.6-1.4-.5-2.3-1.5a7 7 0 0 1-1.5-2.3q-.5-1.3-.5-3v-13q0-1.6.5-3a6 6 0 0 1 3.8-3.8q1.3-.6 3-.6h11v4.8H113q-1.2 0-2 .8-.6.5-.6 2v12.6q0 1.3.7 2t1.9.7h10.3z" stroke="#000" stroke-width=".8"/><path d="M136.7 18q1.5 0 1.4-1.4v-1q0-1.5-1.4-1.6H132q-1.5 0-1.5 1.5v2.6zm5.1 10.8h-10.7q-3 0-4.2-1.2t-1.2-3.7v-9.4q0-2.5 1.2-3.7t4.2-1.1h6.6q3 0 4.1 1.1 1.3 1.2 1.3 3.7v2.7q0 2.6-1.3 3.7-1.2 1.2-4.1 1.2h-7v.8q0 1.5 1.4 1.5h9.7z" fill="#000"/><path d="M136.7 18q1.5 0 1.4-1.4v-1q0-1.5-1.4-1.6H132q-1.5 0-1.5 1.5v2.6zm5.1 10.8h-10.7q-3 0-4.2-1.2t-1.2-3.7v-9.4q0-2.5 1.2-3.7t4.2-1.1h6.6q3 0 4.1 1.1 1.3 1.2 1.3 3.7v2.7q0 2.6-1.3 3.7-1.2 1.2-4.1 1.2h-7v.8q0 1.5 1.4 1.5h9.7z" stroke="#000" stroke-width=".8"/><path d="M150.6 28.8h-5V1h5z" fill="#000"/><path d="M150.6 28.8h-5V1h5z" stroke="#000" stroke-width=".8"/><path d="M158.8 28.8h-5V1h5z" fill="#000"/><path d="M158.8 28.8h-5V1h5z" stroke="#000" stroke-width=".8"/><path d="M182.8 24q1.2 0 2-.8.6-.6.6-2V8.5q0-1.2-.7-2a3 3 0 0 0-1.9-.6h-6.7v18zm8-2.6q0 1.7-.5 3a7 7 0 0 1-3.8 3.8 8 8 0 0 1-2.9.6h-12.9V1h13q1.6 0 2.8.6 1.4.5 2.3 1.4.9 1 1.5 2.4t.5 3z" fill="#000"/><path d="M182.8 24q1.2 0 2-.8.6-.6.6-2V8.5q0-1.2-.7-2a3 3 0 0 0-1.9-.6h-6.7v18zm8-2.6q0 1.7-.5 3a7 7 0 0 1-3.8 3.8 8 8 0 0 1-2.9.6h-12.9V1h13q1.6 0 2.8.6 1.4.5 2.3 1.4.9 1 1.5 2.4t.5 3z" stroke="#000" stroke-width=".8"/><path d="M198.5 28.8h-4.9v-12q0-3.6 1.8-5.4 1.8-1.7 5.6-1.7h2.6V14h-2.3q-1.4 0-2 .7-.8.6-.8 2.3z" fill="#000"/><path d="M198.5 28.8h-4.9v-12q0-3.6 1.8-5.4 1.8-1.7 5.6-1.7h2.6V14h-2.3q-1.4 0-2 .7-.8.6-.8 2.3z" stroke="#000" stroke-width=".8"/><path d="M210 27.8q0 .6-.2.8l-.8.2h-3.3l-.8-.2-.1-.8v-3.4l.1-.8.8-.2h3.3q.6 0 .8.2l.2.8z" fill="#000"/><path d="M210 27.8q0 .6-.2.8l-.8.2h-3.3l-.8-.2-.1-.8v-3.4l.1-.8.8-.2h3.3q.6 0 .8.2l.2.8z" stroke="#000" stroke-width=".8"/><path d="M22 23.4H0a5.3 5.3 0 0 0 5.2 5.4h22a5.3 5.3 0 0 0-5.2-5.4M5.2 1h22A5.3 5.3 0 0 1 22 6.3H0A5.3 5.3 0 0 1 5.2 1m0 15A5.3 5.3 0 0 0 0 21.3h12.6V16zm9.5 5.3H22a5.3 5.3 0 0 0 5.2-5.3H14.7zM0 8.5c0 3 2.3 5.3 5.2 5.3h7.4V8.5zm27.2 5.3c0-3-2.3-5.3-5.2-5.3h-7.3v5.3z" fill="#127CA9"/></svg>