<svg width="614" height="149" viewBox="0 0 614 149" fill="none" xmlns="http://www.w3.org/2000/svg"><g id="imageSVG-noCondo"><rect id="gradition 3" y="25" width="614" height="120" fill="#00D1FF"></rect><rect id="gradiiton 2" y="25" width="614" height="120" fill="url(#paint0_linear_1405_472)" fill-opacity="0.6"></rect><path id="graditon 1" d="M0 25H614V51H0V25Z" fill="url(#paint1_linear_1405_472)" fill-opacity="0.3"></path><g class="h2-blink"><g id="H2 1" class="h2"><path id="603" d="M587.223 149V146.309C591.829 141.85 594.924 138.288 594.924 135.438C594.924 133.644 594.008 132.668 592.522 132.668C591.259 132.668 590.293 133.565 589.402 134.567L587 132.034C588.808 129.976 590.491 129 593.116 129C596.682 129 599.158 131.427 599.158 135.174C599.158 138.551 596.434 142.272 593.611 145.306C594.528 145.174 595.79 145.042 596.632 145.042H600V149H587.223Z" fill="white" fill-opacity="0.6"></path><path id="H" d="M542 145V85H556.272V107.872H575.807V85H590V145H575.807V120.356H556.272V145H542Z" fill="white" fill-opacity="0.5"></path></g><g id="H2 2" class="h2"><g id="602" filter="url(#filter0_f_1405_472)"><path d="M527.257 129V126.04C532.571 121.135 536.143 117.216 536.143 114.082C536.143 112.108 535.086 111.034 533.371 111.034C531.914 111.034 530.8 112.021 529.771 113.124L527 110.338C529.086 108.074 531.029 107 534.057 107C538.171 107 541.029 109.67 541.029 113.792C541.029 117.507 537.886 121.599 534.629 124.937C535.686 124.792 537.143 124.646 538.114 124.646H542V129H527.257Z" fill="white" fill-opacity="0.4"></path></g><g id="H_2" filter="url(#filter1_f_1405_472)"><path d="M484 118.05V51H500.11V76.56H522.16V51H538.18V118.05H522.16V90.51H500.11V118.05H484Z" fill="white" fill-opacity="0.25"></path></g></g><g id="H2 3" class="h2"><g id="601" filter="url(#filter2_d_1405_472)"><path d="M490.429 96V91.0211C499.286 82.7718 505.238 76.1821 505.238 70.9103C505.238 67.591 503.476 65.785 500.619 65.785C498.19 65.785 496.333 67.4446 494.619 69.2995L490 64.6135C493.476 60.8061 496.714 59 501.762 59C508.619 59 513.381 63.4908 513.381 70.4222C513.381 76.6702 508.143 83.5528 502.714 89.1662C504.476 88.9222 506.905 88.6781 508.524 88.6781H515V96H490.429Z" fill="white" fill-opacity="0.7" shape-rendering="crispEdges"></path></g><g id="H_3" filter="url(#filter3_d_1405_472)"><path d="M436 89V15H453.841V43.2094H478.259V15H496V89H478.259V58.6054H453.841V89H436Z" fill="white" fill-opacity="0.65" shape-rendering="crispEdges"></path></g></g><g id="H2 4" class="h2"><g id="2" filter="url(#filter4_f_1405_472)"><path d="M434.206 132V129.578C438.457 125.565 441.314 122.359 441.314 119.794C441.314 118.179 440.469 117.301 439.097 117.301C437.931 117.301 437.04 118.108 436.217 119.011L434 116.731C435.669 114.879 437.223 114 439.646 114C442.937 114 445.223 116.185 445.223 119.557C445.223 122.596 442.709 125.945 440.103 128.675C440.949 128.557 442.114 128.438 442.891 128.438H446V132H434.206Z" fill="white" fill-opacity="0.6"></path></g><g id="H_4" filter="url(#filter5_f_1405_472)"><path d="M391 130V74H404.38V95.3476H422.694V74H436V130H422.694V106.999H404.38V130H391Z" fill="white" fill-opacity="0.25"></path></g></g><defs><style>.h2-blink .h2{animation:blink0 10s infinite alternate;opacity:.4}.h2-blink .h2:nth-child(1){animation-delay:calc(5s * 0)}.h2-blink .h2:nth-child(2){animation-delay:calc(5s * 0.2)}.h2-blink .h2:nth-child(3){animation-delay:calc(5s * 0.4)}.h2-blink .h2:nth-child(4){animation-delay:calc(5s * 0.6)}@keyframes blink0{from{opacity:.4}to{opacity:1}}</style></defs></g><g id="cludes"><g class="moving"><g id="clude 03" class="clude-moving"><g id="Ellipse 109" filter="url(#filter6_f_1405_472)"><ellipse cx="381.5" cy="20.5" rx="17.5" ry="11.5" fill="white"></ellipse><path d="M398.5 20.5C398.5 23.4531 396.678 26.1909 393.6 28.2139C390.525 30.2341 386.249 31.5 381.5 31.5C376.751 31.5 372.475 30.2341 369.4 28.2139C366.322 26.1909 364.5 23.4531 364.5 20.5C364.5 17.5469 366.322 14.8091 369.4 12.7861C372.475 10.7659 376.751 9.5 381.5 9.5C386.249 9.5 390.525 10.7659 393.6 12.7861C396.678 14.8091 398.5 17.5469 398.5 20.5Z" stroke="white" stroke-opacity="0.9"></path></g><g id="Ellipse 110" filter="url(#filter7_f_1405_472)"><ellipse cx="366.5" cy="30.5" rx="17.5" ry="11.5" fill="white" fill-opacity="0.95"></ellipse><path d="M383.5 30.5C383.5 33.4531 381.678 36.1909 378.6 38.2139C375.525 40.2341 371.249 41.5 366.5 41.5C361.751 41.5 357.475 40.2341 354.4 38.2139C351.322 36.1909 349.5 33.4531 349.5 30.5C349.5 27.5469 351.322 24.8091 354.4 22.7861C357.475 20.7659 361.751 19.5 366.5 19.5C371.249 19.5 375.525 20.7659 378.6 22.7861C381.678 24.8091 383.5 27.5469 383.5 30.5Z" stroke="white" stroke-opacity="0.9"></path></g><g id="Ellipse 111" filter="url(#filter8_f_1405_472)"><ellipse cx="341.5" cy="21.5" rx="17.5" ry="11.5" fill="white"></ellipse><path d="M358.5 21.5C358.5 24.4531 356.678 27.1909 353.6 29.2139C350.525 31.2341 346.249 32.5 341.5 32.5C336.751 32.5 332.475 31.2341 329.4 29.2139C326.322 27.1909 324.5 24.4531 324.5 21.5C324.5 18.5469 326.322 15.8091 329.4 13.7861C332.475 11.7659 336.751 10.5 341.5 10.5C346.249 10.5 350.525 11.7659 353.6 13.7861C356.678 15.8091 358.5 18.5469 358.5 21.5Z" stroke="white" stroke-opacity="0.9"></path></g><g id="Ellipse 112" filter="url(#filter9_f_1405_472)"><ellipse cx="355.5" cy="15.5" rx="17.5" ry="11.5" fill="white"></ellipse><path d="M372.5 15.5C372.5 18.4531 370.678 21.1909 367.6 23.2139C364.525 25.2341 360.249 26.5 355.5 26.5C350.751 26.5 346.475 25.2341 343.4 23.2139C340.322 21.1909 338.5 18.4531 338.5 15.5C338.5 12.5469 340.322 9.80913 343.4 7.78612C346.475 5.76586 350.751 4.5 355.5 4.5C360.249 4.5 364.525 5.76586 367.6 7.78612C370.678 9.80913 372.5 12.5469 372.5 15.5Z" stroke="white" stroke-opacity="0.9"></path></g></g><g id="clude 02" class="clude-moving"><g id="Ellipse 105" filter="url(#filter10_f_1405_472)"><path d="M292 34.5C292 41.4036 284.613 47 275.5 47C266.387 47 259 41.4036 259 34.5C259 27.5964 266.387 22 275.5 22C284.613 22 292 27.5964 292 34.5Z" fill="white"></path><path d="M291.5 34.5C291.5 37.7613 289.756 40.7502 286.865 42.9403C283.974 45.1307 279.957 46.5 275.5 46.5C271.043 46.5 267.026 45.1307 264.135 42.9403C261.244 40.7502 259.5 37.7613 259.5 34.5C259.5 31.2387 261.244 28.2498 264.135 26.0597C267.026 23.8693 271.043 22.5 275.5 22.5C279.957 22.5 283.974 23.8693 286.865 26.0597C289.756 28.2498 291.5 31.2387 291.5 34.5Z" stroke="white" stroke-opacity="0.9"></path></g><g id="Ellipse 106" filter="url(#filter11_f_1405_472)"><ellipse cx="269.5" cy="46" rx="16.5" ry="10" fill="white" fill-opacity="0.95"></ellipse><path d="M285.5 46C285.5 48.5193 283.813 50.883 280.908 52.6435C278.013 54.3983 273.98 55.5 269.5 55.5C265.02 55.5 260.987 54.3983 258.092 52.6435C255.187 50.883 253.5 48.5193 253.5 46C253.5 43.4807 255.187 41.117 258.092 39.3565C260.987 37.6017 265.02 36.5 269.5 36.5C273.98 36.5 278.013 37.6017 280.908 39.3565C283.813 41.117 285.5 43.4807 285.5 46Z" stroke="white" stroke-opacity="0.9"></path></g><g id="Ellipse 107" filter="url(#filter12_f_1405_472)"><ellipse cx="250.5" cy="36" rx="16.5" ry="10" fill="white" fill-opacity="0.95"></ellipse><path d="M266.5 36C266.5 38.5193 264.813 40.883 261.908 42.6435C259.013 44.3983 254.98 45.5 250.5 45.5C246.02 45.5 241.987 44.3983 239.092 42.6435C236.187 40.883 234.5 38.5193 234.5 36C234.5 33.4807 236.187 31.117 239.092 29.3565C241.987 27.6017 246.02 26.5 250.5 26.5C254.98 26.5 259.013 27.6017 261.908 29.3565C264.813 31.117 266.5 33.4807 266.5 36Z" stroke="white" stroke-opacity="0.9"></path></g><g id="Ellipse 108" filter="url(#filter13_f_1405_472)"><ellipse cx="267.5" cy="26" rx="16.5" ry="10" fill="white"></ellipse><path d="M283.5 26C283.5 28.5193 281.813 30.883 278.908 32.6435C276.013 34.3983 271.98 35.5 267.5 35.5C263.02 35.5 258.987 34.3983 256.092 32.6435C253.187 30.883 251.5 28.5193 251.5 26C251.5 23.4807 253.187 21.117 256.092 19.3565C258.987 17.6017 263.02 16.5 267.5 16.5C271.98 16.5 276.013 17.6017 278.908 19.3565C281.813 21.117 283.5 23.4807 283.5 26Z" stroke="white" stroke-opacity="0.9"></path></g></g><g id="clude 01" class="clude-moving"><g id="Ellipse 113" filter="url(#filter14_f_1405_472)"><path d="M181 35.5C181 31.3579 186.149 28 192.5 28C198.851 28 204 31.3579 204 35.5C204 39.6421 198.851 43 192.5 43C186.149 43 181 39.6421 181 35.5Z" fill="white"></path><path d="M181.5 35.5C181.5 33.6533 182.648 31.9155 184.641 30.6155C186.63 29.3185 189.407 28.5 192.5 28.5C195.593 28.5 198.37 29.3185 200.359 30.6155C202.352 31.9155 203.5 33.6533 203.5 35.5C203.5 37.3467 202.352 39.0845 200.359 40.3845C198.37 41.6815 195.593 42.5 192.5 42.5C189.407 42.5 186.63 41.6815 184.641 40.3845C182.648 39.0845 181.5 37.3467 181.5 35.5Z" stroke="white" stroke-opacity="0.9"></path></g><g id="Ellipse 114" filter="url(#filter15_f_1405_472)"><ellipse cx="199" cy="25" rx="11" ry="7" transform="rotate(180 199 25)" fill="white"></ellipse><path d="M188.5 25C188.5 23.2972 189.585 21.6842 191.49 20.4721C193.389 19.2637 196.043 18.5 199 18.5C201.957 18.5 204.611 19.2637 206.51 20.4721C208.415 21.6842 209.5 23.2972 209.5 25C209.5 26.7028 208.415 28.3158 206.51 29.5279C204.611 30.7363 201.957 31.5 199 31.5C196.043 31.5 193.389 30.7363 191.49 29.5279C189.585 28.3158 188.5 26.7028 188.5 25Z" stroke="white" stroke-opacity="0.9"></path></g><g id="Ellipse 115" filter="url(#filter16_f_1405_472)"><ellipse cx="209" cy="30" rx="11" ry="8" transform="rotate(180 209 30)" fill="white"></ellipse><path d="M198.5 30C198.5 27.9902 199.619 26.127 201.516 24.7475C203.412 23.3684 206.057 22.5 209 22.5C211.943 22.5 214.588 23.3684 216.484 24.7475C218.381 26.127 219.5 27.9902 219.5 30C219.5 32.0098 218.381 33.873 216.484 35.2525C214.588 36.6316 211.943 37.5 209 37.5C206.057 37.5 203.412 36.6316 201.516 35.2525C199.619 33.873 198.5 32.0098 198.5 30Z" stroke="white" stroke-opacity="0.9"></path></g><g id="Ellipse 116" filter="url(#filter17_f_1405_472)"><ellipse cx="203" cy="35.5" rx="11" ry="7.5" transform="rotate(180 203 35.5)" fill="white"></ellipse><path d="M192.5 35.5C192.5 33.6429 193.604 31.9051 195.503 30.6098C197.401 29.3162 200.05 28.5 203 28.5C205.95 28.5 208.599 29.3162 210.497 30.6098C212.396 31.9051 213.5 33.6429 213.5 35.5C213.5 37.3571 212.396 39.0949 210.497 40.3902C208.599 41.6838 205.95 42.5 203 42.5C200.05 42.5 197.401 41.6838 195.503 40.3902C193.604 39.0949 192.5 37.3571 192.5 35.5Z" stroke="white" stroke-opacity="0.9"></path></g></g><defs><style>.moving .clude-moving{animation:blink1 10s infinite;animation-timing-function:linear;opacity:0}.moving .clude-moving:nth-child(1){animation-delay:calc(10s * 0)}.moving .clude-moving:nth-child(2){animation-delay:calc(10s * 0.25)}.moving .clude-moving:nth-child(3){animation-delay:calc(10s * 0.5)}@keyframes blink1{0%{opacity:0;transform:translateX(0%)}50%{opacity:1;transform:translateX(-5%)}100%{opacity:0;transform:translateX(-10%)}}</style></defs></g><g id="currents"><path class="plus-minus" id="plus08" d="M173 91H171V93H169V95H171V97H173V95H175V93H173V91Z" fill="white"></path><path class="plus-minus" id="plus07" d="M189 102H187V104H185V106H187V108H189V106H191V104H189V102Z" fill="white"></path><path class="plus-minus" id="plus06" d="M202 111H200V113H198V115H200V117H202V115H204V113H202V111Z" fill="white" fill-opacity="0.9"></path><path class="plus-minus" id="plus05" d="M213 107H211V109H209V111H211V113H213V111H215V109H213V107Z" fill="white" fill-opacity="0.85"></path><path class="plus-minus" id="plus04" d="M227 116H225V118H223V120H225V122H227V120H229V118H227V116Z" fill="white" fill-opacity="0.75"></path><path class="plus-minus" id="plus03" d="M241 113H239V115H237V117H239V119H241V117H243V115H241V113Z" fill="white" fill-opacity="0.65"></path><path class="plus-minus" id="plus02" d="M256 127H254V129H252V131H254V133H256V131H258V129H256V127Z" fill="white" fill-opacity="0.45"></path><path class="plus-minus" id="plus01" d="M270 126H268V128H266V130H268V132H270V130H272V128H270V126Z" fill="white" fill-opacity="0.2"></path><rect class="plus-minus" id="minus08" x="171" y="125" width="6" height="2" fill="white"></rect><rect class="plus-minus" id="minus07" x="184" y="122" width="6" height="2" fill="white"></rect><rect class="plus-minus" id="minus06" x="196" y="127" width="6" height="2" fill="white" fill-opacity="0.9"></rect><rect class="plus-minus" id="minus05" x="209" y="133" width="6" height="2" fill="white" fill-opacity="0.85"></rect><rect class="plus-minus" id="minus04" x="221" y="128" width="6" height="2" fill="white" fill-opacity="0.75"></rect><rect class="plus-minus" id="minus03" x="237" y="132" width="6" height="2" fill="white" fill-opacity="0.65"></rect><rect class="plus-minus" id="minus02" x="250" y="135" width="6" height="2" fill="white" fill-opacity="0.45"></rect><rect class="plus-minus" id="minus01" x="266" y="137" width="6" height="2" fill="white" fill-opacity="0.2"></rect><defs><style>#currents .plus-minus{animation:blink2 2.5s infinite alternate;opacity:0}#currents .plus-minus:nth-child(16),#currents .plus-minus:nth-child(8){animation-delay:calc(2.5s * 0)}#currents .plus-minus:nth-child(15),#currents .plus-minus:nth-child(7){animation-delay:calc(2.5s * 0.2)}#currents .plus-minus:nth-child(14),#currents .plus-minus:nth-child(6){animation-delay:calc(2.5s * 0.4)}#currents .plus-minus:nth-child(13),#currents .plus-minus:nth-child(5){animation-delay:calc(2.5s * 0.6)}#currents .plus-minus:nth-child(12),#currents .plus-minus:nth-child(4){animation-delay:calc(2.5s * 0.8)}#currents .plus-minus:nth-child(11),#currents .plus-minus:nth-child(3){animation-delay:calc(2.5s * 1.0)}#currents .plus-minus:nth-child(10),#currents .plus-minus:nth-child(2){animation-delay:calc(2.5s * 1.2)}#currents .plus-minus:nth-child(1),#currents .plus-minus:nth-child(9){animation-delay:calc(2.5s * 1.4)}@keyframes blink2{from{opacity:0}to{opacity:1}}</style></defs></g></g><g id="lines"><g id="line2" filter="url(#filter18_f_1405_472)"><path d="M177 111.5L306.5 139L437.5 130.5L478.5 75L533.5 126.483L597.5 134.5" stroke="white" stroke-opacity="0.3"></path></g><path id="line1" d="M170 114.5L306.5 142.5L437.5 134L478.5 78.5L533.5 129.983L597.5 138" stroke="white" stroke-opacity="0.3"></path></g></g><defs><filter id="filter0_f_1405_472" x="523" y="103" width="23" height="30" filterUnits="userSpaceOnUse" color-interpolation-filters="sRGB"><feFlood flood-opacity="0" result="BackgroundImageFix"></feFlood><feBlend mode="normal" in="SourceGraphic" in2="BackgroundImageFix" result="shape"></feBlend><feGaussianBlur stdDeviation="2" result="effect1_foregroundBlur_1405_472"></feGaussianBlur></filter><filter id="filter1_f_1405_472" x="477.7" y="44.7" width="66.7802" height="79.6508" filterUnits="userSpaceOnUse" color-interpolation-filters="sRGB"><feFlood flood-opacity="0" result="BackgroundImageFix"></feFlood><feBlend mode="normal" in="SourceGraphic" in2="BackgroundImageFix" result="shape"></feBlend><feGaussianBlur stdDeviation="3.15" result="effect1_foregroundBlur_1405_472"></feGaussianBlur></filter><filter id="filter2_d_1405_472" x="486" y="59" width="33" height="45" filterUnits="userSpaceOnUse" color-interpolation-filters="sRGB"><feFlood flood-opacity="0" result="BackgroundImageFix"></feFlood><feColorMatrix in="SourceAlpha" type="matrix" values="0 0 0 0 0 0 0 0 0 0 0 0 0 0 0 0 0 0 127 0" result="hardAlpha"></feColorMatrix><feOffset dy="4"></feOffset><feGaussianBlur stdDeviation="2"></feGaussianBlur><feComposite in2="hardAlpha" operator="out"></feComposite><feColorMatrix type="matrix" values="0 0 0 0 0 0 0 0 0 0 0 0 0 0 0 0 0 0 0.25 0"></feColorMatrix><feBlend mode="normal" in2="BackgroundImageFix" result="effect1_dropShadow_1405_472"></feBlend><feBlend mode="normal" in="SourceGraphic" in2="effect1_dropShadow_1405_472" result="shape"></feBlend></filter><filter id="filter3_d_1405_472" x="432" y="15" width="68" height="82" filterUnits="userSpaceOnUse" color-interpolation-filters="sRGB"><feFlood flood-opacity="0" result="BackgroundImageFix"></feFlood><feColorMatrix in="SourceAlpha" type="matrix" values="0 0 0 0 0 0 0 0 0 0 0 0 0 0 0 0 0 0 127 0" result="hardAlpha"></feColorMatrix><feOffset dy="4"></feOffset><feGaussianBlur stdDeviation="2"></feGaussianBlur><feComposite in2="hardAlpha" operator="out"></feComposite><feColorMatrix type="matrix" values="0 0 0 0 0 0 0 0 0 0 0 0 0 0 0 0 0 0 0.25 0"></feColorMatrix><feBlend mode="normal" in2="BackgroundImageFix" result="effect1_dropShadow_1405_472"></feBlend><feBlend mode="normal" in="SourceGraphic" in2="effect1_dropShadow_1405_472" result="shape"></feBlend></filter><filter id="filter4_f_1405_472" x="430" y="110" width="20" height="26" filterUnits="userSpaceOnUse" color-interpolation-filters="sRGB"><feFlood flood-opacity="0" result="BackgroundImageFix"></feFlood><feBlend mode="normal" in="SourceGraphic" in2="BackgroundImageFix" result="shape"></feBlend><feGaussianBlur stdDeviation="2" result="effect1_foregroundBlur_1405_472"></feGaussianBlur></filter><filter id="filter5_f_1405_472" x="387" y="70" width="53" height="64" filterUnits="userSpaceOnUse" color-interpolation-filters="sRGB"><feFlood flood-opacity="0" result="BackgroundImageFix"></feFlood><feBlend mode="normal" in="SourceGraphic" in2="BackgroundImageFix" result="shape"></feBlend><feGaussianBlur stdDeviation="2" result="effect1_foregroundBlur_1405_472"></feGaussianBlur></filter><filter id="filter6_f_1405_472" x="360" y="5" width="43" height="31" filterUnits="userSpaceOnUse" color-interpolation-filters="sRGB"><feFlood flood-opacity="0" result="BackgroundImageFix"></feFlood><feBlend mode="normal" in="SourceGraphic" in2="BackgroundImageFix" result="shape"></feBlend><feGaussianBlur stdDeviation="2" result="effect1_foregroundBlur_1405_472"></feGaussianBlur></filter><filter id="filter7_f_1405_472" x="345" y="15" width="43" height="31" filterUnits="userSpaceOnUse" color-interpolation-filters="sRGB"><feFlood flood-opacity="0" result="BackgroundImageFix"></feFlood><feBlend mode="normal" in="SourceGraphic" in2="BackgroundImageFix" result="shape"></feBlend><feGaussianBlur stdDeviation="2" result="effect1_foregroundBlur_1405_472"></feGaussianBlur></filter><filter id="filter8_f_1405_472" x="320" y="6" width="43" height="31" filterUnits="userSpaceOnUse" color-interpolation-filters="sRGB"><feFlood flood-opacity="0" result="BackgroundImageFix"></feFlood><feBlend mode="normal" in="SourceGraphic" in2="BackgroundImageFix" result="shape"></feBlend><feGaussianBlur stdDeviation="2" result="effect1_foregroundBlur_1405_472"></feGaussianBlur></filter><filter id="filter9_f_1405_472" x="334" y="0" width="43" height="31" filterUnits="userSpaceOnUse" color-interpolation-filters="sRGB"><feFlood flood-opacity="0" result="BackgroundImageFix"></feFlood><feBlend mode="normal" in="SourceGraphic" in2="BackgroundImageFix" result="shape"></feBlend><feGaussianBlur stdDeviation="2" result="effect1_foregroundBlur_1405_472"></feGaussianBlur></filter><filter id="filter10_f_1405_472" x="255" y="18" width="41" height="33" filterUnits="userSpaceOnUse" color-interpolation-filters="sRGB"><feFlood flood-opacity="0" result="BackgroundImageFix"></feFlood><feBlend mode="normal" in="SourceGraphic" in2="BackgroundImageFix" result="shape"></feBlend><feGaussianBlur stdDeviation="2" result="effect1_foregroundBlur_1405_472"></feGaussianBlur></filter><filter id="filter11_f_1405_472" x="249" y="32" width="41" height="28" filterUnits="userSpaceOnUse" color-interpolation-filters="sRGB"><feFlood flood-opacity="0" result="BackgroundImageFix"></feFlood><feBlend mode="normal" in="SourceGraphic" in2="BackgroundImageFix" result="shape"></feBlend><feGaussianBlur stdDeviation="2" result="effect1_foregroundBlur_1405_472"></feGaussianBlur></filter><filter id="filter12_f_1405_472" x="230" y="22" width="41" height="28" filterUnits="userSpaceOnUse" color-interpolation-filters="sRGB"><feFlood flood-opacity="0" result="BackgroundImageFix"></feFlood><feBlend mode="normal" in="SourceGraphic" in2="BackgroundImageFix" result="shape"></feBlend><feGaussianBlur stdDeviation="2" result="effect1_foregroundBlur_1405_472"></feGaussianBlur></filter><filter id="filter13_f_1405_472" x="247" y="12" width="41" height="28" filterUnits="userSpaceOnUse" color-interpolation-filters="sRGB"><feFlood flood-opacity="0" result="BackgroundImageFix"></feFlood><feBlend mode="normal" in="SourceGraphic" in2="BackgroundImageFix" result="shape"></feBlend><feGaussianBlur stdDeviation="2" result="effect1_foregroundBlur_1405_472"></feGaussianBlur></filter><filter id="filter14_f_1405_472" x="177" y="24" width="31" height="23" filterUnits="userSpaceOnUse" color-interpolation-filters="sRGB"><feFlood flood-opacity="0" result="BackgroundImageFix"></feFlood><feBlend mode="normal" in="SourceGraphic" in2="BackgroundImageFix" result="shape"></feBlend><feGaussianBlur stdDeviation="2" result="effect1_foregroundBlur_1405_472"></feGaussianBlur></filter><filter id="filter15_f_1405_472" x="184" y="14" width="30" height="22" filterUnits="userSpaceOnUse" color-interpolation-filters="sRGB"><feFlood flood-opacity="0" result="BackgroundImageFix"></feFlood><feBlend mode="normal" in="SourceGraphic" in2="BackgroundImageFix" result="shape"></feBlend><feGaussianBlur stdDeviation="2" result="effect1_foregroundBlur_1405_472"></feGaussianBlur></filter><filter id="filter16_f_1405_472" x="194" y="18" width="30" height="24" filterUnits="userSpaceOnUse" color-interpolation-filters="sRGB"><feFlood flood-opacity="0" result="BackgroundImageFix"></feFlood><feBlend mode="normal" in="SourceGraphic" in2="BackgroundImageFix" result="shape"></feBlend><feGaussianBlur stdDeviation="2" result="effect1_foregroundBlur_1405_472"></feGaussianBlur></filter><filter id="filter17_f_1405_472" x="188" y="24" width="30" height="23" filterUnits="userSpaceOnUse" color-interpolation-filters="sRGB"><feFlood flood-opacity="0" result="BackgroundImageFix"></feFlood><feBlend mode="normal" in="SourceGraphic" in2="BackgroundImageFix" result="shape"></feBlend><feGaussianBlur stdDeviation="2" result="effect1_foregroundBlur_1405_472"></feGaussianBlur></filter><filter id="filter18_f_1405_472" x="172.896" y="70.25" width="428.666" height="73.2539" filterUnits="userSpaceOnUse" color-interpolation-filters="sRGB"><feFlood flood-opacity="0" result="BackgroundImageFix"></feFlood><feBlend mode="normal" in="SourceGraphic" in2="BackgroundImageFix" result="shape"></feBlend><feGaussianBlur stdDeviation="2" result="effect1_foregroundBlur_1405_472"></feGaussianBlur></filter><linearGradient id="paint0_linear_1405_472" x1="0" y1="85" x2="614" y2="85" gradientUnits="userSpaceOnUse"><stop stop-color="white"></stop><stop offset="1" stop-color="#007D99"></stop></linearGradient><linearGradient id="paint1_linear_1405_472" x1="307" y1="51" x2="307" y2="20.7941" gradientUnits="userSpaceOnUse"><stop stop-color="white" stop-opacity="0"></stop><stop offset="0.538239" stop-color="white"></stop></linearGradient></defs></svg>